# xmcd CD database file
#
# Track frame offsets:
#	150
#	14265
#	30612
#	47700
#	62177
#	79965
#	97737
#	116842
#	134560
#	155112
#	170897
#	190202
#	208877
#	227805
#	247142
#
# Disc length: 3598 seconds
#
# Revision: 1
# Processed by: cddbd v1.5.2PL0 Copyright (c) Steve Scherf et al.
# Submitted via: CDex 1.70beta3
#
DISCID=de0e0c0f
DTITLE=Various Artist - 神田川〜なごり雪
DYEAR=1900
DGENRE=歌謡曲
TTITLE0=かぐや姫/神田川
TTITLE1=イルカ/なごり雪
TTITLE2=イルカ/海岸通
TTITLE3=風/22才の別れ
TTITLE4=風/ささやかなこの人生
TTITLE5=かぐや姫/赤ちょうちん
TTITLE6=かぐや姫/妹
TTITLE7=南こうせつ/今日は雨
TTITLE8=イルカ/Follow Me
TTITLE9=イルカ/雨の物語
TTITLE10=南こうせつ/夢一夜
TTITLE11=南こうせつ/愛する人へ
TTITLE12=沢田聖子/シオン
TTITLE13=沢田聖子/星空のメッセージ
TTITLE14=イルカ/夜明けのグッドバイ
EXTD=
EXTT0=
EXTT1=
EXTT2=
EXTT3=
EXTT4=
EXTT5=
EXTT6=
EXTT7=
EXTT8=
EXTT9=
EXTT10=
EXTT11=
EXTT12=
EXTT13=
EXTT14=
PLAYORDER=
